<svg height="200px" width="200px" version="1.1" id="Layer_1" xmlns="http://www.w3.org/2000/svg" xmlns:xlink="http://www.w3.org/1999/xlink" viewBox="0 0 295.996 295.996" xml:space="preserve" fill="#000000"><g id="SVGRepo_bgCarrier" stroke-width="0"></g><g id="SVGRepo_tracerCarrier" stroke-linecap="round" stroke-linejoin="round"></g><g id="SVGRepo_iconCarrier"> <g> <path style="fill:#FFCE00;" d="M267.089,91.099c-7.269-15.153-17.35-28.709-29.558-39.997 c-22.391-13.376-48.766-20.667-76.771-19.646C87.688,34.12,29.753,91.997,26.059,163.997h239.129c3.772-13,5.809-26.098,5.809-40 C270.996,112.663,269.633,101.65,267.089,91.099z M113.007,130.997c0-9-6.997-15.597-15.597-15.597s-15.597,6.597-15.597,15.597 h-16c0-18,14.174-31.597,31.597-31.597s31.597,13.597,31.597,31.597H113.007z M214.181,130.997c0-9-6.997-15.597-15.597-15.597 s-15.597,6.597-15.597,15.597h-16c0-18,14.174-31.597,31.597-31.597s31.597,13.597,31.597,31.597H214.181z"></path> <path style="fill:#FFB100;" d="M267.089,91.099c2.544,10.552,3.907,21.564,3.907,32.898c0,13.902-2.036,27-5.809,40h13.837 c0.637-5,0.972-10.584,0.972-16C279.996,127.636,275.358,108.337,267.089,91.099z"></path> <path style="fill:#FFE454;" d="M160.76,31.456c28.006-1.021,54.381,6.27,76.771,19.646C213.985,29.328,182.521,16,147.998,16 C75.214,16,16,75.214,16,147.997c0,5.416,0.335,11,0.972,16h9.087C29.753,91.997,87.688,34.12,160.76,31.456z"></path> <path d="M147.998,0C66.392,0,0,66.392,0,147.998s66.392,147.998,147.998,147.998s147.998-66.392,147.998-147.998 S229.604,0,147.998,0z M147.883,231.08c-22.023,0-40.657-14.289-47.349-34.083h94.463h0.231 C188.538,216.791,169.904,231.08,147.883,231.08z M265.188,163.997H26.059h-9.087c-0.637-5-0.972-10.584-0.972-16 C16,75.214,75.214,16,147.998,16c34.523,0,65.987,13.328,89.533,35.102c12.208,11.288,22.289,24.844,29.558,39.997 c8.27,17.238,12.907,36.537,12.907,56.898c0,5.416-0.335,11-0.972,16H265.188z"></path> <path d="M97.41,99.4c-17.423,0-31.597,13.597-31.597,31.597h16c0-9,6.997-15.597,15.597-15.597s15.597,6.597,15.597,15.597h16 C129.007,112.997,114.833,99.4,97.41,99.4z"></path> <path d="M198.584,99.4c-17.423,0-31.597,13.597-31.597,31.597h16c0-9,6.997-15.597,15.597-15.597s15.597,6.597,15.597,15.597h16 C230.181,112.997,216.007,99.4,198.584,99.4z"></path> <path style="fill:#FFFFFF;" d="M100.534,196.997c6.691,19.794,25.325,34.083,47.349,34.083c22.021,0,40.655-14.289,47.346-34.083 h-0.231L100.534,196.997L100.534,196.997z"></path> </g> </g></svg>
